<svg width="26" height="30" viewBox="0 0 26 30" fill="none" xmlns="http://www.w3.org/2000/svg">
<g clip-path="url(#clip0)">
<path d="M25.6324 7.6499C25.6324 6.8999 25.6324 6.1499 25.6324 5.3999C25.6324 4.7999 25.1824 4.3499 24.5824 4.3499C20.0824 4.3499 16.6324 2.9999 13.7824 0.299902C13.3324 -0.150098 12.7324 -0.150098 12.2824 0.299902C9.43244 2.9999 6.13244 4.3499 1.63244 4.3499C1.03244 4.3499 0.432442 4.7999 0.432442 5.3999C0.432442 6.1499 0.432442 6.8999 0.432442 7.6499C0.282442 15.1499 0.132442 25.4999 12.7324 29.8499H13.0324H13.3324C25.9324 25.6499 25.7824 15.2999 25.6324 7.6499Z" fill="#00CF72"/>
<path d="M19.2242 10.7038C18.9899 10.4321 18.61 10.4321 18.3756 10.7038L11.1873 19.0394L8.42418 15.8353C8.18987 15.5636 7.81 15.5636 7.57565 15.8353C7.34132 16.107 7.34132 16.5475 7.57565 16.8192L10.763 20.5152C10.9972 20.7869 11.3774 20.7867 11.6115 20.5152L19.2242 11.6877C19.4585 11.416 19.4585 10.9755 19.2242 10.7038Z" fill="white"/>
</g>
<defs>
<clipPath id="clip0">
<path d="M0.399902 0H25.5999V30H0.399902V0Z" fill="white"/>
</clipPath>
</defs>
</svg>
