<svg width="27" height="26" viewBox="0 0 27 26" fill="none" xmlns="http://www.w3.org/2000/svg">
<path d="M11.0805 26C8.99586 26 7.30029 24.2479 7.30029 22.0938C7.30029 21.6625 7.639 21.3125 8.05634 21.3125C8.47368 21.3125 8.81239 21.6625 8.81239 22.0938C8.81239 23.3866 9.82962 24.4375 11.0805 24.4375C12.3316 24.4375 13.3487 23.3866 13.3487 22.0938C13.3487 21.6625 13.6874 21.3125 14.1047 21.3125C14.5221 21.3125 14.8608 21.6625 14.8608 22.0938C14.8608 24.2479 13.1652 26 11.0805 26Z" fill="#6E6C79"/>
<path d="M19.3971 22.875H2.76405C1.7913 22.875 1 22.0573 1 21.0521C1 20.5187 1.22482 20.0136 1.61687 19.6666C3.1502 18.3281 4.02419 16.3824 4.02419 14.3209V11.4166C4.02419 7.39591 7.18959 4.125 11.0806 4.125C14.9718 4.125 18.1372 7.39591 18.1372 11.4166V14.3209C18.1372 16.3824 19.0112 18.3281 20.5343 19.6594C20.9365 20.0136 21.1614 20.5187 21.1614 21.0521C21.1614 22.0573 20.37 22.875 19.3971 22.875ZM11.0806 5.6875C8.02317 5.6875 5.53629 8.25727 5.53629 11.4166V14.3209C5.53629 16.8426 4.46682 19.224 2.60291 20.8521C2.56747 20.8833 2.5121 20.948 2.5121 21.0521C2.5121 21.1937 2.62709 21.3125 2.76405 21.3125H19.3971C19.5343 21.3125 19.6493 21.1937 19.6493 21.0521C19.6493 20.948 19.5937 20.8833 19.5605 20.8542C17.6945 19.224 16.6251 16.8426 16.6251 14.3209V11.4166C16.6251 8.25727 14.1382 5.6875 11.0806 5.6875Z" fill="#6E6C79"/>
<path d="M11.0808 5.6875C10.6634 5.6875 10.3247 5.3375 10.3247 4.90625V1.78125C10.3247 1.35 10.6634 1 11.0808 1C11.4981 1 11.8368 1.35 11.8368 1.78125V4.90625C11.8368 5.3375 11.4981 5.6875 11.0808 5.6875Z" fill="#6E6C79"/>
</svg>
