<svg width="14" height="17" viewBox="0 0 14 17" fill="none" xmlns="http://www.w3.org/2000/svg">
<g clip-path="url(#clip0)">
<path d="M0.946777 8.79785V14.4317C0.946777 14.95 1.33965 15.3707 1.82178 15.3707H6.19678V8.79785H0.946777Z" fill="white"/>
<path d="M13.1968 5.04204H10.4283C10.6269 4.8965 10.7975 4.7519 10.9165 4.62232C11.6227 3.86081 11.6227 2.62135 10.9165 1.85984C10.2305 1.11805 9.03528 1.11992 8.35015 1.85984C7.9704 2.2683 6.96415 3.93123 7.10328 5.04204H7.04028C7.17853 3.93123 6.17228 2.2683 5.7934 1.85984C5.1074 1.11992 3.91215 1.11992 3.22703 1.85984C2.52178 2.62135 2.52178 3.86081 3.22615 4.62232C3.34603 4.7519 3.51665 4.8965 3.71528 5.04204H0.946777C0.464652 5.04204 0.0717773 5.46364 0.0717773 5.98102V7.38949C0.0717773 7.64865 0.267777 7.85898 0.509277 7.85898H6.19678V5.98102H7.94678V7.85898H13.6343C13.8758 7.85898 14.0718 7.64865 14.0718 7.38949V5.98102C14.0718 5.46364 13.6798 5.04204 13.1968 5.04204ZM6.14515 5.01105C6.14515 5.01105 6.1084 5.04204 5.98328 5.04204C5.37865 5.04204 4.22453 4.36785 3.8474 3.96034C3.48078 3.56409 3.48078 2.91807 3.8474 2.52182C4.02503 2.33027 4.2604 2.2251 4.51065 2.2251C4.76003 2.2251 4.9954 2.33027 5.17303 2.52182C5.76278 3.15845 6.34903 4.78476 6.14515 5.01105ZM8.1594 5.04204C8.03515 5.04204 7.9984 5.01199 7.9984 5.01105C7.79453 4.78476 8.38078 3.15845 8.97053 2.52182C9.32315 2.13966 9.94003 2.13778 10.2962 2.52182C10.6637 2.91807 10.6637 3.56409 10.2962 3.96034C9.91903 4.36785 8.7649 5.04204 8.1594 5.04204Z" fill="white"/>
<path d="M7.94678 8.79785V15.3707H12.3218C12.8048 15.3707 13.1968 14.95 13.1968 14.4317V8.79785H7.94678Z" fill="white"/>
</g>
<defs>
<clipPath id="clip0">
<rect y="0.237305" width="14" height="16" fill="white"/>
</clipPath>
</defs>
</svg>
