<svg width="25" height="25" viewBox="0 0 25 25" fill="none" xmlns="http://www.w3.org/2000/svg">
<path d="M12.5 3.125C17.6694 3.125 21.875 7.33068 21.875 12.5001C21.875 17.6694 17.6694 21.875 12.5 21.875C7.33062 21.875 3.125 17.6694 3.125 12.5001C3.125 7.33068 7.33062 3.125 12.5 3.125ZM12.5 20.1705C16.7295 20.1705 20.1705 16.7295 20.1705 12.5001C20.1705 8.27057 16.7295 4.82955 12.5 4.82955C8.27045 4.82955 4.82954 8.27057 4.82954 12.5001C4.82954 16.7295 8.27051 20.1705 12.5 20.1705Z" fill="#C5C5C5"/>
<path d="M12.5001 7.10205C13.1266 7.10205 13.6362 7.61205 13.6362 8.23893C13.6362 8.86523 13.1266 9.37478 12.5001 9.37478C11.8736 9.37478 11.364 8.86523 11.364 8.23893C11.364 7.61205 11.8736 7.10205 12.5001 7.10205Z" fill="#C5C5C5"/>
<path d="M12.4998 11.0796C12.9705 11.0796 13.3521 11.4612 13.3521 11.9319V17.0455C13.3521 17.5162 12.9705 17.8978 12.4998 17.8978C12.0291 17.8978 11.6475 17.5162 11.6475 17.0455V11.9319C11.6475 11.4612 12.0291 11.0796 12.4998 11.0796Z" fill="#C5C5C5"/>
</svg>
