<svg width="30" height="30" viewBox="0 0 30 30" fill="none" xmlns="http://www.w3.org/2000/svg">
<path d="M25.625 11.25H23.75V8.74998C23.75 3.92519 19.8248 0 15 0C10.1752 0 6.25002 3.92519 6.25002 8.74998V11.25H4.37502C4.02955 11.25 3.75 11.5296 3.75 11.875V27.5C3.75 28.8788 4.87119 30 6.25002 30H23.75C25.1288 30 26.25 28.8788 26.25 27.5V11.875C26.25 11.5296 25.9704 11.25 25.625 11.25ZM16.8714 24.306C16.8909 24.4824 16.8342 24.6594 16.7157 24.7919C16.5973 24.9243 16.4276 25 16.25 25H13.75C13.5724 25 13.4027 24.9243 13.2843 24.7919C13.1659 24.6595 13.1091 24.4825 13.1287 24.306L13.523 20.7605C12.8827 20.2948 12.5 19.5581 12.5 18.75C12.5 17.3712 13.6212 16.25 15.0001 16.25C16.3789 16.25 17.5001 17.3712 17.5001 18.75C17.5001 19.5581 17.1174 20.2948 16.4771 20.7605L16.8714 24.306ZM20 11.25H10V8.74998C10 5.99303 12.243 3.75 15 3.75C17.757 3.75 20 5.99303 20 8.74998V11.25Z" fill="#6E6C79"/>
</svg>
