<svg width="186" height="41" viewBox="0 0 186 41" fill="none" xmlns="http://www.w3.org/2000/svg">
<path d="M179.2 37H107.6C104 37 101 34.6 101 31.6V9.4C101 6.4 104 4 107.6 4H179.3C182.9 4 185.9 6.4 185.9 9.4V31.7C186 34.6 183 37 179.2 37Z" fill="#4D8DEC"/>
<path d="M35.6998 27.1L38.3998 29.9L36.9998 31.2C36.1998 32 34.9998 32.9 33.7998 33.4C32.5998 33.9 31.4998 34.1 30.0998 34.1C28.7998 34.1 27.5998 33.9 26.3998 33.4C25.1998 32.9 24.1998 32.2 23.1998 31.2C22.1998 30.2 21.4998 29.2 20.9998 28C20.4998 26.8 20.2998 25.7 20.2998 24.3C20.2998 23 20.4998 21.8 20.9998 20.6C21.4998 19.4 22.1998 18.4 23.1998 17.4C24.1998 16.4 25.1998 15.7 26.3998 15.2C27.5998 14.7 28.6998 14.5 30.0998 14.5C31.2998 14.5 32.5998 14.7 33.7998 15.2C34.9998 15.7 36.0998 16.4 36.9998 17.4L38.2998 18.7L27.6998 29.5C28.8998 30 29.8998 30.2 31.1998 30C32.4998 29.8 33.4998 29.3 34.3998 28.3L35.6998 27.1ZM25.9998 20.3C24.7998 21.5 24.2998 22.8 24.2998 24.4C24.2998 25.2 24.4998 26.1 24.9998 26.9C25.2998 26.6 25.7998 26.1 26.4998 25.4C27.1998 24.7 27.9998 23.9 28.6998 23.2C29.3998 22.5 30.1998 21.7 30.9998 20.9C31.6998 20.2 32.2998 19.6 32.6998 19.2C31.4998 18.7 30.4998 18.5 29.1998 18.7C27.9998 18.8 26.9998 19.3 25.9998 20.3Z" fill="#434AC7"/>
<path d="M58.8999 14.7998V24.3998C58.8999 25.6998 58.5999 26.8998 58.0999 28.0998C57.5999 29.2998 56.8999 30.2998 56.0999 31.2998C55.2999 32.0998 54.2999 32.7998 53.0999 33.2998C51.8999 33.7998 50.7999 33.9998 49.2999 33.9998C47.9999 33.9998 46.7999 33.7998 45.5999 33.2998C44.3999 32.7998 43.3999 32.0998 42.5999 31.2998C41.7999 30.4998 41.0999 29.4998 40.5999 28.0998C40.0999 26.8998 39.8999 25.7998 39.8999 24.3998V14.7998H43.6999V24.3998C43.6999 25.1998 43.8999 25.8998 44.1999 26.6998C44.4999 27.3998 44.8999 27.9998 45.3999 28.4998C45.8999 28.9998 46.5999 29.4998 47.1999 29.6998C47.8999 29.8998 48.6999 30.1998 49.4999 30.1998C50.2999 30.1998 50.9999 29.9998 51.7999 29.6998C52.4999 29.3998 53.0999 28.9998 53.5999 28.4998C54.0999 27.9998 54.5999 27.2998 54.7999 26.6998C55.0999 25.9998 55.2999 25.1998 55.2999 24.3998V14.7998C55.2999 14.7998 58.8999 14.7998 58.8999 14.7998Z" fill="#434AC7"/>
<path d="M71.7001 14.7998V18.5998H69.7001C68.9001 18.5998 68.2001 18.7998 67.4001 19.0998C66.7001 19.3998 66.1001 19.7998 65.6001 20.2998C65.1001 20.7998 64.6001 21.4998 64.4001 22.0998C64.1001 22.7998 63.9001 23.5998 63.9001 24.3998V33.9998H60.1001V24.3998C60.1001 23.0998 60.3001 21.6998 60.9001 20.5998C61.4001 19.3998 62.1001 18.3998 62.9001 17.5998C63.7001 16.7998 64.7001 16.0998 66.1001 15.5998C67.3001 14.8998 68.4001 14.7998 69.8001 14.7998H71.7001Z" fill="#434AC7"/>
<path d="M93.5998 7V33.9H89.7998V7H93.5998Z" fill="#434AC7"/>
<path d="M85.2 15.3998C82.5 13.0998 78.9 12.8998 76.5 15.0998C75 16.5998 74.3 18.7998 74.8 20.6998C72.8 19.9998 70.6 20.4998 69.1 21.9998C66.8 24.1998 66.8 27.7998 68.9 30.5998C69.1 30.7998 69.4 31.3998 70.6 32.0998C72.3 33.2998 74.3 33.7998 76.4 33.7998L86.9 33.5998L87.7 23.0998C87.9 20.8998 87.4 18.9998 86.4 17.2998C86.1 15.8998 85.4 15.3998 85.2 15.3998Z" fill="#E86DA9"/>
<path d="M114.3 29.5001C114 29.5001 113.8 29.5001 113.8 29.3001C113.8 29.1001 113.6 29.0001 113.6 28.8001V12.1001C113.6 11.9001 113.6 11.8001 113.8 11.6001C114 11.4001 114 11.6001 114.3 11.6001H120.1C121.6 11.6001 122.9 11.8001 123.9 12.3001C124.9 12.8001 125.7 13.5001 126.4 14.3001C127.1 15.1001 127.4 16.1001 127.7 17.1001C128 18.1001 128 19.3001 128 20.4001C128 21.5001 127.8 22.7001 127.7 23.9001C127.5 25.1001 127 25.9001 126.5 26.7001C125.8 27.5001 125.2 28.2001 124 28.7001C123 29.2001 121.7 29.4001 120 29.4001H114.2L114.3 29.5001ZM123.6 20.7001C123.6 18.9001 123.3 17.4001 122.6 16.6001C121.9 15.8001 121.1 15.3001 119.8 15.3001H117.8V26.1001H119.5C120.2 26.1001 120.7 25.9001 121.2 25.8001C121.7 25.6001 122 25.3001 122.4 25.0001C122.7 24.7001 123.1 24.0001 123.2 23.3001C123.4 22.4001 123.6 21.6001 123.6 20.7001Z" fill="white"/>
<path d="M134.3 28.7001C134.1 29.0001 134.1 29.2001 134 29.4001C133.8 29.6001 133.7 29.6001 133.3 29.6001H130.3C130.1 29.6001 130 29.6001 130 29.4001C130 29.4001 130 29.1001 130 28.9001L135.2 12.3001C135.4 12.0001 135.4 11.8001 135.5 11.8001C135.7 11.6001 135.8 11.6001 136.2 11.6001H139.5C139.8 11.6001 140.2 11.6001 140.2 11.8001C140.4 12.0001 140.4 12.1001 140.5 12.5001L146 28.9001C146 29.1001 146 29.2001 146 29.4001C146 29.6001 145.8 29.6001 145.7 29.6001H142.4C142.1 29.6001 141.9 29.6001 141.7 29.4001C141.5 29.2001 141.5 29.1001 141.4 28.7001L140.6 25.5001H135.3L134.3 28.7001ZM138.8 19.3001L138 16.0001H137.8L137 19.3001L136.2 22.3001H139.7L138.8 19.3001Z" fill="white"/>
<path d="M159 14.9001C159 15.1001 158.8 15.1001 158.5 15.1001H154.5V28.9001C154.5 29.1001 154.5 29.2001 154.3 29.2001C154.3 29.4001 154.1 29.4001 153.8 29.4001H150.6C150.4 29.4001 150.3 29.4001 150.1 29.2001C149.9 29.0001 150.1 29.0001 150.1 28.9001V15.1001H146.1C145.8 15.1001 145.8 15.1001 145.6 14.9001C145.6 14.7001 145.4 14.7001 145.4 14.6001V12.1001C145.4 11.9001 145.4 11.8001 145.6 11.6001C145.8 11.6001 145.9 11.6001 146.3 11.6001H158.5C158.8 11.6001 159.2 11.8001 159.2 12.3001V14.8001C159.1 14.8001 159.1 14.9001 159 14.9001Z" fill="white"/>
<path d="M161.3 12.1001C161.3 11.9001 161.3 11.8001 161.5 11.6001C161.5 11.6001 161.7 11.6001 161.8 11.6001H172.6C172.9 11.6001 173.1 11.8001 173.1 12.3001V14.8001C173.1 15.0001 173.1 15.1001 172.9 15.1001C172.9 15.3001 172.7 15.3001 172.4 15.3001H165.4V18.6001H171.6C171.9 18.6001 172.3 18.8001 172.3 19.1001V21.6001C172.3 21.8001 172.3 21.9001 172.1 21.9001C171.9 21.9001 171.9 22.1001 171.6 22.1001H165.4V25.9001H172.6C172.9 25.9001 173.3 26.1001 173.3 26.6001V29.0001C173.3 29.2001 173.3 29.3001 173.1 29.3001C172.9 29.3001 172.9 29.5001 172.6 29.5001H161.8C161.6 29.5001 161.5 29.5001 161.3 29.3001C161.1 29.1001 161.1 29.1001 161.1 29.0001V12.1001H161.3Z" fill="white"/>
<path d="M19.1 34.0998H15.5L3.5 14.3998V34.0998H0V7.2998H3.6L15.6 27.0998V7.2998H19.2V34.0998H19.1Z" fill="#434AC7"/>
</svg>
