<svg width="137" height="30" viewBox="0 0 137 30" fill="none" xmlns="http://www.w3.org/2000/svg">
<g clip-path="url(#clip0)">
<path d="M131.122 27.0731H78.7316C76.0975 27.0731 73.9023 25.317 73.9023 23.1219V6.87798C73.9023 4.68286 76.0975 2.92676 78.7316 2.92676H131.195C133.829 2.92676 136.024 4.68286 136.024 6.87798V23.195C136.097 25.317 133.902 27.0731 131.122 27.0731Z" fill="#4D8DEC"/>
<path d="M26.1218 19.8294L28.0974 21.8782L27.073 22.8294C26.4877 23.4147 25.6096 24.0733 24.7316 24.4391C23.8535 24.805 23.0486 24.9513 22.0242 24.9513C21.073 24.9513 20.195 24.805 19.3169 24.4391C18.4389 24.0733 17.7072 23.5611 16.9755 22.8294C16.2438 22.0977 15.7316 21.366 15.3657 20.4879C14.9999 19.6099 14.8535 18.805 14.8535 17.7806C14.8535 16.8294 14.9999 15.9513 15.3657 15.0733C15.7316 14.1952 16.2438 13.4635 16.9755 12.7318C17.7072 12.0001 18.4389 11.4879 19.3169 11.1221C20.195 10.7562 20.9999 10.6099 22.0242 10.6099C22.9023 10.6099 23.8535 10.7562 24.7316 11.1221C25.6096 11.4879 26.4145 12.0001 27.073 12.7318L28.0242 13.683L20.2682 21.5855C21.1462 21.9513 21.8779 22.0977 22.8291 21.9513C23.7803 21.805 24.5121 21.4391 25.1706 20.7074L26.1218 19.8294ZM19.0242 14.8538C18.1462 15.7318 17.7803 16.683 17.7803 17.8538C17.7803 18.4391 17.9267 19.0977 18.2925 19.683C18.5121 19.4635 18.8779 19.0977 19.3901 18.5855C19.9023 18.0733 20.4877 17.4879 20.9999 16.9757C21.5121 16.4635 22.0974 15.8782 22.6828 15.2928C23.195 14.7806 23.634 14.3416 23.9267 14.0489C23.0486 13.683 22.3169 13.5367 21.3657 13.683C20.4877 13.7562 19.756 14.1221 19.0242 14.8538Z" fill="#434AC7"/>
<path d="M43.0977 10.8291V17.8535C43.0977 18.8047 42.8782 19.6828 42.5124 20.5608C42.1465 21.4389 41.6343 22.1706 41.049 22.9023C40.4636 23.4876 39.7319 23.9998 38.8538 24.3657C37.9758 24.7315 37.1709 24.8779 36.0734 24.8779C35.1221 24.8779 34.2441 24.7315 33.366 24.3657C32.488 23.9998 31.7563 23.4876 31.1709 22.9023C30.5856 22.3169 30.0734 21.5852 29.7075 20.5608C29.3417 19.6828 29.1953 18.8779 29.1953 17.8535V10.8291H31.9758V17.8535C31.9758 18.4389 32.1221 18.9511 32.3417 19.5364C32.5612 20.0486 32.8538 20.4876 33.2197 20.8535C33.5856 21.2193 34.0978 21.5852 34.5368 21.7315C35.049 21.8779 35.6343 22.0974 36.2197 22.0974C36.8051 22.0974 37.3173 21.9511 37.9026 21.7315C38.4148 21.512 38.8538 21.2193 39.2197 20.8535C39.5856 20.4876 39.9514 19.9754 40.0977 19.5364C40.3173 19.0242 40.4636 18.4389 40.4636 17.8535V10.8291C40.4636 10.8291 43.0977 10.8291 43.0977 10.8291Z" fill="#434AC7"/>
<path d="M52.4634 10.8291V13.6096H51C50.4146 13.6096 49.9024 13.7559 49.317 13.9754C48.8049 14.195 48.3658 14.4876 48 14.8535C47.6341 15.2193 47.2683 15.7315 47.1219 16.1706C46.9024 16.6828 46.7561 17.2681 46.7561 17.8535V24.8779H43.9756V17.8535C43.9756 16.9023 44.1219 15.8779 44.561 15.073C44.9268 14.195 45.439 13.4632 46.0244 12.8779C46.6097 12.2925 47.3414 11.7803 48.3658 11.4145C49.2439 10.9023 50.0488 10.8291 51.0731 10.8291H52.4634Z" fill="#434AC7"/>
<path d="M68.488 5.12207V24.805H65.7075V5.12207H68.488Z" fill="#434AC7"/>
<path d="M62.3414 11.2682C60.3658 9.58531 57.7316 9.43897 55.9755 11.0487C54.878 12.1463 54.3658 13.756 54.7316 15.1463C53.2682 14.6341 51.6585 14.9999 50.5609 16.0975C48.878 17.7073 48.878 20.3414 50.4146 22.3902C50.5609 22.5365 50.7804 22.9756 51.6585 23.4878C52.9024 24.3658 54.3658 24.7317 55.9024 24.7317L63.5853 24.5853L64.1706 16.9024C64.317 15.2926 63.9511 13.9024 63.2194 12.6585C62.9999 11.6341 62.4877 11.2682 62.3414 11.2682Z" fill="#E86DA9"/>
<path d="M83.6343 21.5855C83.4148 21.5855 83.2684 21.5855 83.2684 21.4391C83.2684 21.2928 83.1221 21.2196 83.1221 21.0733V8.85375C83.1221 8.7074 83.1221 8.63423 83.2684 8.48789C83.4148 8.34155 83.4148 8.48789 83.6343 8.48789H87.8782C88.9757 8.48789 89.9269 8.63423 90.6587 9.00009C91.3904 9.36594 91.9757 9.87814 92.4879 10.4635C93.0001 11.0489 93.2196 11.7806 93.4391 12.5123C93.6587 13.244 93.6587 14.122 93.6587 14.9269C93.6587 15.7318 93.5123 16.6098 93.4391 17.4879C93.2928 18.3659 92.9269 18.9513 92.5611 19.5367C92.0489 20.122 91.6099 20.6342 90.7318 21.0001C90.0001 21.3659 89.0489 21.5123 87.805 21.5123H83.5611L83.6343 21.5855ZM90.4391 15.1464C90.4391 13.8294 90.2196 12.7318 89.7074 12.1464C89.1952 11.5611 88.6099 11.1952 87.6587 11.1952H86.1952V19.0976H87.4391C87.9513 19.0976 88.3172 18.9513 88.683 18.8781C89.0489 18.7318 89.2684 18.5123 89.5611 18.2928C89.7806 18.0733 90.0733 17.5611 90.1465 17.0489C90.2928 16.3903 90.4391 15.805 90.4391 15.1464Z" fill="white"/>
<path d="M98.2684 21C98.1221 21.2195 98.1221 21.3658 98.0489 21.5122C97.9026 21.6585 97.8294 21.6585 97.5367 21.6585H95.3416C95.1952 21.6585 95.1221 21.6585 95.1221 21.5122C95.1221 21.5122 95.1221 21.2927 95.1221 21.1463L98.9269 8.99999C99.0733 8.78048 99.0733 8.63413 99.1465 8.63413C99.2928 8.48779 99.366 8.48779 99.6587 8.48779H102.073C102.293 8.48779 102.585 8.48779 102.585 8.63413C102.732 8.78048 102.732 8.85365 102.805 9.14633L106.829 21.1463C106.829 21.2927 106.829 21.3658 106.829 21.5122C106.829 21.6585 106.683 21.6585 106.61 21.6585H104.195C103.976 21.6585 103.829 21.6585 103.683 21.5122C103.537 21.3658 103.537 21.2927 103.464 21L102.878 18.6585H99.0001L98.2684 21ZM101.561 14.1219L100.976 11.7073H100.829L100.244 14.1219L99.6587 16.3171H102.22L101.561 14.1219Z" fill="white"/>
<path d="M116.341 10.9024C116.341 11.0488 116.195 11.0488 115.976 11.0488H113.049V21.1463C113.049 21.2927 113.049 21.3658 112.902 21.3658C112.902 21.5122 112.756 21.5122 112.536 21.5122H110.195C110.049 21.5122 109.976 21.5122 109.829 21.3658C109.683 21.2195 109.829 21.2195 109.829 21.1463V11.0488H106.902C106.683 11.0488 106.683 11.0488 106.536 10.9024C106.536 10.7561 106.39 10.7561 106.39 10.6829V8.85365C106.39 8.70731 106.39 8.63413 106.536 8.48779C106.683 8.48779 106.756 8.48779 107.049 8.48779H115.976C116.195 8.48779 116.488 8.63413 116.488 8.99999V10.8293C116.415 10.8293 116.415 10.9024 116.341 10.9024Z" fill="white"/>
<path d="M118.024 8.85365C118.024 8.70731 118.024 8.63413 118.171 8.48779C118.171 8.48779 118.317 8.48779 118.39 8.48779H126.293C126.512 8.48779 126.658 8.63413 126.658 8.99999V10.8293C126.658 10.9756 126.658 11.0488 126.512 11.0488C126.512 11.1951 126.366 11.1951 126.146 11.1951H121.024V13.6097H125.561C125.78 13.6097 126.073 13.7561 126.073 13.9756V15.8049C126.073 15.9512 126.073 16.0244 125.927 16.0244C125.78 16.0244 125.78 16.1707 125.561 16.1707H121.024V18.9512H126.293C126.512 18.9512 126.805 19.0975 126.805 19.4634V21.2195C126.805 21.3658 126.805 21.439 126.658 21.439C126.512 21.439 126.512 21.5854 126.293 21.5854H118.39C118.244 21.5854 118.171 21.5854 118.024 21.439C117.878 21.2927 117.878 21.2927 117.878 21.2195V8.85365H118.024Z" fill="white"/>
<path d="M13.9756 24.9511H11.3415L2.56098 10.5364V24.9511H0V5.34131H2.63415L11.4146 19.8291V5.34131H14.0488V24.9511H13.9756Z" fill="#434AC7"/>
</g>
<defs>
<clipPath id="clip0">
<path d="M0 0H136.098V30H0V0Z" fill="white"/>
</clipPath>
</defs>
</svg>
