<svg width="27" height="26" viewBox="0 0 27 26" fill="none" xmlns="http://www.w3.org/2000/svg">
<g clip-path="url(#clip0)">
<path d="M21.9481 7H3.05711C1.37078 7 0 8.37078 0 10.0571V22.9683C0 24.6547 1.37078 26.0255 3.05711 26.0255H21.9429C23.6292 26.0255 25 24.6547 25 22.9683V10.0623C25.0052 8.37596 23.6344 7 21.9481 7ZM23.6085 22.9683C23.6085 23.8839 22.8636 24.6288 21.9481 24.6288H3.05711C2.14153 24.6288 1.39665 23.8839 1.39665 22.9683V10.0623C1.39665 9.1467 2.14153 8.40182 3.05711 8.40182H21.9429C22.8585 8.40182 23.6034 9.1467 23.6034 10.0623V22.9683H23.6085Z" fill="#6E6C79"/>
<path d="M15.7665 16.3524L21.8807 10.8692C22.1652 10.6106 22.191 10.1709 21.9324 9.88123C21.6738 9.59673 21.2341 9.57087 20.9444 9.82951L12.5128 17.3973L10.8678 15.9282C10.8627 15.923 10.8575 15.9179 10.8575 15.9127C10.8213 15.8765 10.7851 15.8454 10.7437 15.8144L4.05013 9.82433C3.76045 9.5657 3.32077 9.59156 3.06213 9.88123C2.80349 10.1709 2.82935 10.6106 3.11903 10.8692L9.30566 16.3989L3.14489 22.1666C2.86556 22.4304 2.85004 22.8701 3.11385 23.1546C3.25352 23.2994 3.43974 23.377 3.62596 23.377C3.79666 23.377 3.96736 23.3149 4.10185 23.1908L10.3557 17.3404L12.0524 18.856C12.1869 18.975 12.3524 19.0319 12.518 19.0319C12.6835 19.0319 12.8542 18.9698 12.9835 18.8508L14.7267 17.2886L20.9444 23.1959C21.0789 23.3253 21.2548 23.3873 21.4255 23.3873C21.6117 23.3873 21.7927 23.3149 21.9324 23.1701C22.1962 22.8908 22.1859 22.4459 21.9065 22.1821L15.7665 16.3524Z" fill="#6E6C79"/>
</g>
<defs>
<clipPath id="clip0">
<path d="M0 0H27V26H0V0Z" fill="white"/>
</clipPath>
</defs>
</svg>
