<svg width="24" height="21" viewBox="0 0 24 21" fill="none" xmlns="http://www.w3.org/2000/svg">
<path d="M22.4727 4.62254C21.8864 4.03638 21.1792 3.74322 20.3506 3.74322H17.7244L17.1266 2.14883C16.978 1.7659 16.7065 1.43561 16.3116 1.15802C15.9169 0.88054 15.5124 0.741699 15.0981 0.741699H9.09519C8.68093 0.741699 8.2764 0.88054 7.88164 1.15802C7.48688 1.43561 7.21536 1.7659 7.06683 2.14883L6.46893 3.74322H3.8427C3.01405 3.74322 2.30683 4.03638 1.72055 4.62254C1.13439 5.20874 0.841309 5.91604 0.841309 6.74461V17.2495C0.841309 18.0782 1.13439 18.7855 1.72055 19.3716C2.30683 19.9579 3.01409 20.251 3.8427 20.251H20.3503C21.1789 20.251 21.886 19.9579 22.4724 19.3716C23.0585 18.7855 23.3517 18.0782 23.3517 17.2495V6.74461C23.3518 5.91604 23.0587 5.20874 22.4727 4.62254ZM15.8073 15.7079C14.7794 16.7358 13.5426 17.2498 12.0965 17.2498C10.6504 17.2498 9.41373 16.7358 8.38584 15.7079C7.35794 14.6802 6.84409 13.4432 6.84409 11.9974C6.84409 10.5512 7.3581 9.31449 8.38584 8.28659C9.41361 7.2587 10.6505 6.74485 12.0965 6.74485C13.5426 6.74485 14.7794 7.25882 15.8073 8.28659C16.8351 9.31437 17.349 10.5512 17.349 11.9974C17.349 13.4432 16.8351 14.6801 15.8073 15.7079Z" fill="white"/>
<path d="M12.0964 8.62061C11.1663 8.62061 10.3709 8.95085 9.71046 9.61142C9.04997 10.2719 8.71973 11.0671 8.71973 11.9975C8.71973 12.9274 9.04997 13.7228 9.71046 14.3832C10.3709 15.0436 11.1662 15.3738 12.0964 15.3738C13.0264 15.3738 13.8218 15.0436 14.4823 14.3832C15.1428 13.7228 15.4731 12.9275 15.4731 11.9975C15.4731 11.0671 15.1428 10.2719 14.4823 9.61142C13.8219 8.95089 13.0264 8.62061 12.0964 8.62061Z" fill="white"/>
</svg>
