<svg width="15" height="16" viewBox="0 0 15 16" fill="none" xmlns="http://www.w3.org/2000/svg">
<path d="M14.8703 14.4217L11.2242 10.8877C12.2023 9.79785 12.7944 8.37587 12.7944 6.82169C12.7944 3.40056 9.92349 0.621094 6.39721 0.621094C2.8676 0.621094 0 3.40379 0 6.82169C0 10.2396 2.87092 13.0223 6.39721 13.0223C8.00067 13.0223 9.46773 12.4483 10.5922 11.5004L14.2382 15.0343C14.3247 15.1182 14.4411 15.1633 14.5542 15.1633C14.6673 15.1633 14.7838 15.1214 14.8703 15.0343C15.0432 14.8667 15.0432 14.5894 14.8703 14.4217ZM0.894877 6.82169C0.894877 3.881 3.36327 1.49169 6.39388 1.49169C9.42781 1.49169 11.8929 3.88423 11.8929 6.82169C11.8929 9.75916 9.42781 12.1549 6.39388 12.1549C3.36327 12.1549 0.894877 9.76238 0.894877 6.82169Z" fill="#C5C5C5"/>
</svg>
